<?xml version="1.0" encoding="UTF-8"?>
<svg width="1433px" height="888px" viewBox="0 0 1433 888" version="1.1" xmlns="http://www.w3.org/2000/svg" xmlns:xlink="http://www.w3.org/1999/xlink">
    <!-- Generator: Sketch 49.1 (51147) - http://www.bohemiancoding.com/sketch -->
    <title>noun_1041996_cc</title>
    <desc>Created with Sketch.</desc>
    <defs></defs>
    <g id="Page-1" stroke="none" stroke-width="1" fill="none" fill-rule="evenodd">
        <g id="Artboard-2" transform="translate(-582.000000, -2938.000000)" fill="#000000" fill-rule="nonzero">
            <g id="noun_1041996_cc" transform="translate(582.000000, 2938.000000)">
                <path d="M1284.04638,0 L148.953617,0 C66.8139726,0 0,63.400527 0,141.343756 L0,746.656244 C0,824.599473 66.8139726,888 148.953617,888 L1284.04638,888 C1366.18603,888 1433,824.599473 1433,746.656244 L1433,141.343756 C1433,63.400527 1366.18603,0 1284.04638,0 Z M979.949298,413.587535 L1362.19738,116.592894 C1364.94475,124.413915 1366.79839,132.627558 1366.79839,141.328051 L1366.79839,746.640539 C1366.79839,754.241692 1365.29231,761.434519 1363.1573,768.407477 L979.949298,413.587535 Z M1284.04638,62.8194471 C1296.11163,62.8194471 1307.51485,65.4107493 1317.8754,69.8395204 L716.5,537.090568 L115.124596,69.8395204 C125.485147,65.4107493 136.871824,62.8194471 148.953617,62.8194471 L1284.04638,62.8194471 Z M69.8426961,768.407477 C67.7076943,761.450224 66.2016077,754.257397 66.2016077,746.640539 L66.2016077,141.343756 C66.2016077,132.643263 68.0552527,124.42962 70.8026194,116.608599 L453.050702,413.60324 L69.8426961,768.407477 Z M148.953617,825.164848 C135.779497,825.164848 123.499099,821.961056 112.42688,816.747042 L504.605204,453.634933 L716.5,618.284704 L928.394796,453.650638 L1320.57312,816.762747 C1309.5009,821.976761 1297.2205,825.180553 1284.04638,825.180553 L148.953617,825.180553 L148.953617,825.164848 Z" id="Shape"></path>
            </g>
        </g>
    </g>
</svg>